<?xml version="1.0" encoding="utf-8"?>
<svg xmlns="http://www.w3.org/2000/svg"
	xmlns:xlink="http://www.w3.org/1999/xlink"
	width="38px" height="60px" viewBox="0 0 38 60">
<path fillRule="evenodd" d="M 36.71 52.37C 36.71 52.37 33.99 47.18 33.01 42.95 31.8 36.94 41.96 28.67 36.25 22.1 35.31 21.28 38.15 16.75 37.46 15.56 37 16.88 35.44 19 35.44 19 35.44 19 35.37 12.61 34.1 11.2 34.42 13.72 34.23 16.3 34.23 16.3 34.23 16.3 32.29 10.8 30.36 9.98 32.36 11.93 32.27 14.92 32.27 14.92 32.27 14.92 29.03 8.78 24.53 8.89 27.82 10.67 28.62 13.2 28.62 13.2 28.62 13.2 7.32 10.33 11.19 2.17 8.18 2.92 8.18 11.13 8.18 11.13 8.18 11.13 5.24 6.19 10.15-0.01-0.07 6.37 3.85 17.8 3.85 17.8 3.85 17.8 1.66 17.62 0.5 9.58-1.75 19.46 4.55 24.63 4.55 24.63 4.55 24.63 2.06 28.99 3.45 31.06 4.83 33.13 1.6 37.78 1.66 39.27 1.71 40.77 4.08 40.6 4.08 40.6 4.08 40.6 3.16 43.07 5.18 43.35 4.72 43.52 3.91 45.13 6.22 46.05 5.53 46.22 4.14 54.26 14.07 49.21 17.77 51.1 19.79 60.01 19.79 60.01 19.79 60.01 36.71 52.37 36.71 52.37Z" fill="rgb(255,255,255)"/></svg>