<?xml version="1.0" encoding="utf-8"?>
<svg xmlns="http://www.w3.org/2000/svg"
	xmlns:xlink="http://www.w3.org/1999/xlink"
	width="45px" height="46px" viewBox="0 0 45 46">
<path fillRule="evenodd" d="M 44.73 33.16C 44.73 33.16 36.19 42.05 36.19 42.05 35.81 42.45 35.14 42.52 34.7 42.19 34.7 42.19 27.63 37.04 27.63 37.04 27.19 36.71 27.1 36.09 27.43 35.66 27.43 35.66 28.34 34.47 28.34 34.47 28.67 34.03 29.3 33.94 29.75 34.26 29.75 34.26 34.28 37.54 34.28 37.54 34.72 37.87 35.39 37.8 35.77 37.4 35.77 37.4 42.16 30.8 42.16 30.8 42.54 30.4 43.18 30.38 43.58 30.75 43.58 30.75 44.68 31.76 44.68 31.76 45.09 32.13 45.11 32.76 44.73 33.16ZM 39.13 25.85C 38.25 25.59 37.41 25.44 36.12 25.44 29.96 25.44 24.96 30.36 24.96 36.44 24.96 38.55 25.56 40.51 26.6 42.18 26.71 42.36 26.91 42.57 26.54 42.89 23.72 44.97 21.62 46 20.32 46 16.25 46-0 33.82-0 20.85-0 20.71 0.2 7.43 0.24 7.16 0.4 6.08 0.91 6.17 1.22 6.18 3.91 6.3 6.78 6.46 9.77 5.61 15.08 4.1 18.58-0 20.32-0 22.11-0 26.83 4.1 32.14 5.61 34.69 6.34 37.12 6.34 39.51 6.32 39.84 6.32 40.58 6.32 40.58 7.6 40.58 7.76 40.64 20.75 40.64 20.85 40.64 22.38 40.41 23.89 40.01 25.38 39.95 25.61 39.72 26.09 39.13 25.85Z" fill="rgb(255,255,255)"/></svg>