<?xml version="1.0" encoding="utf-8"?>
<svg xmlns="http://www.w3.org/2000/svg"
	xmlns:xlink="http://www.w3.org/1999/xlink"
	width="48px" height="46px" viewBox="0 0 48 46">
<path fillRule="evenodd" d="M 45.91 15.67C 45.91 15.67 32.69 14.41 32.69 14.41 31.86 14.34 31.14 13.8 30.8 13 30.8 13 26.06 1.42 26.06 1.42 25.31-0.49 22.62-0.49 21.86 1.42 21.86 1.42 17.16 13 17.16 13 16.86 13.8 16.1 14.34 15.27 14.41 15.27 14.41 2.05 15.67 2.05 15.67 0.08 15.86-0.72 18.35 0.76 19.68 0.76 19.68 10.72 28.51 10.72 28.51 11.37 29.08 11.63 29.92 11.44 30.76 11.44 30.76 8.45 43.14 8.45 43.14 7.99 45.09 10.08 46.7 11.82 45.67 11.82 45.67 22.84 39.13 22.84 39.13 23.56 38.71 24.44 38.71 25.15 39.13 25.15 39.13 36.18 45.67 36.18 45.67 37.92 46.7 40 45.13 39.55 43.14 39.55 43.14 36.6 30.76 36.6 30.76 36.41 29.92 36.67 29.08 37.31 28.51 37.31 28.51 47.28 19.68 47.28 19.68 48.72 18.35 47.88 15.86 45.91 15.67Z" fill="rgb(255,255,255)"/></svg>